<svg width="68" height="16" viewBox="0 0 68 16" fill="none" xmlns="http://www.w3.org/2000/svg">
<rect opacity="0.35" x="43.5" y="2.83337" width="21" height="10.3333" rx="2.16667" stroke="white"/>
<path opacity="0.4" d="M66 6V10C66.8079 9.66122 67.3333 8.87313 67.3333 8C67.3333 7.12687 66.8079 6.33878 66 6Z" fill="white"/>
<rect x="45" y="4.33337" width="18" height="7.33333" rx="1.33333" fill="white"/>
<path fill-rule="evenodd" clip-rule="evenodd" d="M30.3338 4.57394C32.5585 4.57403 34.6982 5.41173 36.3105 6.91388C36.4319 7.02985 36.626 7.02839 36.7456 6.9106L37.9062 5.76277C37.9668 5.70302 38.0005 5.6221 38 5.5379C37.9995 5.4537 37.9648 5.37317 37.9035 5.31413C33.6716 1.33979 26.9953 1.33979 22.7633 5.31413C22.702 5.37313 22.6673 5.45363 22.6667 5.53783C22.6661 5.62203 22.6998 5.70298 22.7603 5.76277L23.9213 6.9106C24.0408 7.02856 24.235 7.03003 24.3563 6.91388C25.9689 5.41163 28.1088 4.57393 30.3338 4.57394ZM30.3322 8.29949C31.5559 8.29942 32.736 8.75602 33.643 9.58058C33.7657 9.6976 33.959 9.69507 34.0786 9.57486L35.2392 8.3977C35.3003 8.33596 35.3342 8.25219 35.3333 8.16515C35.3325 8.07811 35.2969 7.99506 35.2345 7.93457C32.4722 5.3552 28.1945 5.3552 25.4322 7.93457C25.3698 7.99506 25.3342 8.07815 25.3334 8.16522C25.3325 8.25229 25.3666 8.33604 25.4278 8.3977L26.5881 9.57486C26.7077 9.69507 26.9009 9.6976 27.0236 9.58058C27.9301 8.75656 29.1092 8.3 30.3322 8.29949ZM32.6666 11.0231C32.6684 11.1085 32.6341 11.1909 32.5718 11.2508L30.557 13.2419C30.498 13.3004 30.4175 13.3334 30.3334 13.3334C30.2494 13.3334 30.1689 13.3004 30.1098 13.2419L28.0947 11.2508C28.0325 11.1909 27.9982 11.1085 28.0001 11.023C28.0019 10.9376 28.0397 10.8566 28.1045 10.7994C29.3912 9.7336 31.2757 9.7336 32.5624 10.7994C32.6271 10.8567 32.6648 10.9376 32.6666 11.0231Z" fill="white"/>
<path fill-rule="evenodd" clip-rule="evenodd" d="M17.6667 3.66663C17.6667 3.11434 17.219 2.66663 16.6667 2.66663H15.6667C15.1144 2.66663 14.6667 3.11434 14.6667 3.66663V12.3333C14.6667 12.8856 15.1144 13.3333 15.6667 13.3333H16.6667C17.219 13.3333 17.6667 12.8856 17.6667 12.3333V3.66663ZM11 4.99996H12C12.5523 4.99996 13 5.44767 13 5.99996V12.3333C13 12.8856 12.5523 13.3333 12 13.3333H11C10.4477 13.3333 10 12.8856 10 12.3333V5.99996C10 5.44767 10.4477 4.99996 11 4.99996ZM7.33335 7.33329H6.33335C5.78107 7.33329 5.33335 7.78101 5.33335 8.33329V12.3333C5.33335 12.8856 5.78107 13.3333 6.33335 13.3333H7.33335C7.88564 13.3333 8.33335 12.8856 8.33335 12.3333V8.33329C8.33335 7.78101 7.88564 7.33329 7.33335 7.33329ZM3.66669 10.3333C3.66669 9.78101 3.21897 9.33329 2.66669 9.33329H1.66669C1.1144 9.33329 0.666687 9.78101 0.666687 10.3333V12.3333C0.666687 12.8856 1.1144 13.3333 1.66669 13.3333H2.66669C3.21897 13.3333 3.66669 12.8856 3.66669 12.3333V10.3333Z" fill="white"/>
</svg>
