<svg width="56" height="23" viewBox="0 0 56 23" fill="none" xmlns="http://www.w3.org/2000/svg">
<path d="M15.9974 20.2563C18.6854 20.2563 20.282 18.1543 20.282 14.5947C20.282 13.2544 20.0257 12.1265 19.535 11.2549C18.8245 9.8999 17.6014 9.16748 16.056 9.16748C13.7562 9.16748 12.1302 10.7129 12.1302 12.8809C12.1302 14.917 13.595 16.3965 15.6092 16.3965C16.847 16.3965 17.8504 15.8179 18.3484 14.8145H18.3704C18.3704 14.8145 18.3997 14.8145 18.407 14.8145C18.4217 14.8145 18.473 14.8145 18.473 14.8145C18.473 17.2314 17.5574 18.6743 16.012 18.6743C15.1038 18.6743 14.4007 18.1763 14.159 17.3779H12.2767C12.5916 19.1138 14.0638 20.2563 15.9974 20.2563ZM16.0633 14.895C14.8475 14.895 13.9832 14.0308 13.9832 12.8223C13.9832 11.6431 14.8914 10.7422 16.0706 10.7422C17.2498 10.7422 18.158 11.6577 18.158 12.8516C18.158 14.0308 17.2718 14.895 16.0633 14.895ZM23.2666 18.8794C23.9624 18.8794 24.4385 18.3813 24.4385 17.7222C24.4385 17.0557 23.9624 16.5649 23.2666 16.5649C22.5781 16.5649 22.0947 17.0557 22.0947 17.7222C22.0947 18.3813 22.5781 18.8794 23.2666 18.8794ZM23.2666 13.3862C23.9624 13.3862 24.4385 12.8955 24.4385 12.2363C24.4385 11.5698 23.9624 11.0791 23.2666 11.0791C22.5781 11.0791 22.0947 11.5698 22.0947 12.2363C22.0947 12.8955 22.5781 13.3862 23.2666 13.3862ZM26.4635 12.522V12.5513H28.236V12.522C28.236 11.4453 28.9831 10.7202 30.089 10.7202C31.129 10.7202 31.8908 11.394 31.8908 12.3242C31.8908 13.0713 31.5319 13.6206 30.089 15.0854L26.5661 18.689V20H33.9049V18.396H29.1588V18.2715L31.3707 16.0522C33.1652 14.2798 33.7438 13.3423 33.7438 12.207C33.7438 10.4419 32.235 9.16748 30.1476 9.16748C27.9796 9.16748 26.4635 10.5444 26.4635 12.522ZM36.1424 20H38.1199L42.639 11.0425V9.43115H35.2855V11.0205H40.7347V11.1377L36.1424 20Z" fill="white"/>
</svg>
